<?xml version="1.0" encoding="UTF-8"?>
<svg width="48px" height="48px" viewBox="0 0 48 48" version="1.1" xmlns="http://www.w3.org/2000/svg" xmlns:xlink="http://www.w3.org/1999/xlink">
    <title>4. Icons/email</title>
    <g id="4.-Icons/email" stroke="none" stroke-width="1" fill="none" fill-rule="evenodd">
        <path d="M24,4 C12.972292,4 4,12.972292 4,24 C4,35.027708 12.972292,44 24,44 C26.46846,44 28.839993,43.551537 31.027344,42.730469 C31.5351901,42.5465144 31.9049365,42.1037505 31.995398,41.5712435 C32.0858596,41.0387366 31.8830681,40.4987107 31.4644582,40.1573711 C31.0458484,39.8160315 30.4760573,39.7260842 29.972656,39.921875 C28.116007,40.618807 26.10554,41 24,41 C14.593708,41 7,33.406292 7,24 C7,14.593708 14.593708,7 24,7 C33.406292,7 41,14.593708 41,24 L41,26.5 C41,29.003499 39.003499,31 36.5,31 C33.996501,31 32,29.003499 32,26.5 L32,24 L32,15.5 C32.0076504,14.9590461 31.7234371,14.455878 31.2561907,14.1831684 C30.7889444,13.9104589 30.2110556,13.9104589 29.7438093,14.1831684 C29.2765629,14.455878 28.9923496,14.9590461 29,15.5 L29,16.566406 C27.419516,14.984362 25.331498,14 23,14 C17.942095,14 14,18.59527 14,24 C14,29.40473 17.942095,34 23,34 C25.872367,34 28.382558,32.516731 30.017578,30.246094 C31.319489,32.483151 33.739215,34 36.5,34 C40.624501,34 44,30.624501 44,26.5 L44,24 C44,12.972292 35.027708,4 24,4 Z M23,17 C26.214095,17 29,20.03073 29,24 C29,27.96927 26.214095,31 23,31 C19.785905,31 17,27.96927 17,24 C17,20.03073 19.785905,17 23,17 Z" id="icon" fill="#151515"></path>
    </g>
</svg>