<?xml version="1.0" encoding="UTF-8"?>
<svg width="48px" height="48px" viewBox="0 0 48 48" version="1.1" xmlns="http://www.w3.org/2000/svg" xmlns:xlink="http://www.w3.org/1999/xlink">
    <title>4. Icons/export-pdf</title>
    <g id="4.-Icons/export-pdf" stroke="none" stroke-width="1" fill="none" fill-rule="evenodd">
        <path d="M12.5,3 C10.019,3 8,5.019 8,7.5 L8,38.5 C8,40.981 10.019,43 12.5,43 L33.050781,43 L31.025391,40.974609 C30.738391,40.687609 30.519609,40.355 30.349609,40 L12.5,40 C11.673,40 11,39.327 11,38.5 L11,7.5 C11,6.673 11.673,6 12.5,6 L24,6 L24,14.5 C24,16.981 26.019,19 28.5,19 L37,19 L37,25.351562 C37.456,25.133563 37.961,25 38.5,25 C39.039,25 39.544,25.133563 40,25.351562 L40,17.5 C40,17.0855 39.832047,16.710828 39.560547,16.439453 L26.560547,3.4394531 C26.289047,3.1680781 25.914,3 25.5,3 L12.5,3 Z M27,8.1210938 L34.878906,16 L28.5,16 C27.673,16 27,15.327 27,14.5 L27,8.1210938 Z M22.5,20 C21.130937,20 20,21.130937 20,22.5 C20,24.242432 20.888952,26.126637 22.052734,27.931641 C21.750344,28.913255 21.422075,29.874122 21.037109,30.740234 C21.027809,30.743734 21.015109,30.7464 21.005859,30.75 C18.475156,31.719413 16.692595,32.834085 15.755859,33.708984 C15.226049,34.205428 15,34.878153 15,35.5 C15,36.137472 15.247964,36.78312 15.732422,37.267578 C16.21688,37.752036 16.862528,38 17.5,38 C18.193028,38 18.762878,37.685238 19.191406,37.337891 C19.717268,36.910628 20.230682,36.260603 20.837891,35.349609 C21.365669,34.557784 21.928546,33.51531 22.470703,32.402344 C23.33558,32.101029 24.252971,31.820054 25.269531,31.597656 C26.849217,32.933661 28.5783,34 30.5,34 C31.869063,34 33,32.869063 33,31.5 C33,30.130937 31.869063,29 30.5,29 C28.838914,29 27.308222,29.197658 25.855469,29.457031 C25.516411,29.133474 25.13658,28.919552 24.826172,28.552734 C24.594083,28.278469 24.474959,27.964123 24.265625,27.673828 C24.707019,26.027583 25,24.284811 25,22.5 C25,21.130937 23.869063,20 22.5,20 Z M22.5,22 C22.786937,22 23,22.213063 23,22.5 C23,23.318581 22.789657,24.121074 22.666016,24.935547 C22.294325,24.031234 22,23.144668 22,22.5 C22,22.213063 22.213063,22 22.5,22 Z M38.5,27 C37.671,27 37,27.671 37,28.5 L37,39.878906 L34.560547,37.439453 C33.974547,36.853453 33.025453,36.853453 32.439453,37.439453 C31.853453,38.024453 31.853453,38.975547 32.439453,39.560547 L37.439453,44.560547 C37.731453,44.853547 38.116,45 38.5,45 C38.884,45 39.267547,44.853547 39.560547,44.560547 L44.560547,39.560547 C45.145547,38.974547 45.145547,38.025453 44.560547,37.439453 C43.974547,36.853453 43.025453,36.853453 42.439453,37.439453 L40,39.878906 L40,28.5 C40,27.671 39.329,27 38.5,27 Z M23.4375,29.96875 C23.458,29.99248 23.485229,30.00762 23.505859,30.03125 C23.471309,30.04085 23.438669,30.050887 23.404297,30.060547 C23.415837,30.030237 23.42604,29.99918 23.4375,29.96875 Z M30.5,31 C30.786937,31 31,31.213063 31,31.5 C31,31.786937 30.786937,32 30.5,32 C29.798426,32 29.004234,31.627448 28.21875,31.224609 C28.983303,31.150325 29.684805,31 30.5,31 Z M19.480469,33.683594 C19.379569,33.845034 19.269027,34.094477 19.171875,34.240234 C18.627271,35.057303 18.107826,35.640419 17.929688,35.785156 C17.71619,35.957422 17.574565,36 17.5,36 C17.369472,36 17.248027,35.955058 17.146484,35.853516 C17.044942,35.751973 17,35.630528 17,35.5 C17,35.354883 17.04779,35.2396 17.121094,35.169922 L17.123047,35.167969 C17.491628,34.824104 18.38237,34.268734 19.480469,33.683594 Z" id="Icon" fill="#151515"></path>
    </g>
</svg>