<?xml version="1.0" encoding="UTF-8"?>
<svg width="84px" height="84px" viewBox="0 0 84 84" version="1.1" xmlns="http://www.w3.org/2000/svg" xmlns:xlink="http://www.w3.org/1999/xlink">
    <title>4. Icons/2. Decorative/glasses</title>
    <g id="4.-Icons/2.-Decorative/glasses" stroke="none" stroke-width="1" fill="none" fill-rule="evenodd">
        <g id="icons8-glasses" transform="translate(3.000000, 17.000000)" fill="#151515">
            <path d="M21.582031,0 C19.628031,0 17.820281,1.057812 16.863281,2.757812 L1.130859,30.507812 C1.117859,30.529812 1.118422,30.553172 1.107422,30.576172 C0.427422,31.365172 0,32.379 0,33.5 C0,35.981 2.019,38 4.5,38 L5.302734,38 C6.696734,44.839 12.756,50 20,50 C28.271,50 35,43.271 35,35 C35,34.662 34.971219,34.332 34.949219,34 L35,34 C35,31.794 36.794,30 39,30 C41.206,30 43,31.794 43,34 L43.050781,34 C43.028781,34.332 43,34.662 43,35 C43,43.271 49.729,50 58,50 C65.244,50 71.303266,44.839 72.697266,38 L73.5,38 C75.981,38 78,35.981 78,33.5 C78,32.379 77.572578,31.365172 76.892578,30.576172 C76.881578,30.553172 76.882141,30.529812 76.869141,30.507812 L61.138672,2.761719 C60.180672,1.058719 58.371969,0 56.417969,0 C53.430969,0 51,2.430969 51,5.417969 L51,7 C51,7.553 51.448,8 52,8 C52.552,8 53,7.553 53,7 L53,5.417969 C53,3.533969 54.533969,2 56.417969,2 C57.649969,2 58.791484,2.667141 59.396484,3.744141 L73.728516,29.023438 C73.651516,29.019438 73.579,29 73.5,29 L72,29 C71.916,29 71.839719,29.028828 71.761719,29.048828 C69.452719,23.731828 64.156,20 58,20 C52.579,20 47.834219,22.901656 45.199219,27.222656 C44.027219,25.309656 41.69,24 39,24 C36.31,24 33.972781,25.309656 32.800781,27.222656 C30.165781,22.901656 25.421,20 20,20 C13.844,20 8.547281,23.731828 6.238281,29.048828 C6.160281,29.028828 6.084,29 6,29 L4.5,29 C4.421,29 4.348484,29.019437 4.271484,29.023438 L18.605469,3.740234 C19.209469,2.666234 20.350031,2 21.582031,2 C23.466031,2 25,3.533969 25,5.417969 L25,7 C25,7.553 25.448,8 26,8 C26.552,8 27,7.553 27,7 L27,5.417969 C27,2.430969 24.569031,0 21.582031,0 Z M20,22 C27.168,22 33,27.832 33,35 C33,42.168 27.168,48 20,48 C12.832,48 7,42.168 7,35 C7,27.832 12.832,22 20,22 Z M58,22 C65.168,22 71,27.832 71,35 C71,42.168 65.168,48 58,48 C50.832,48 45,42.168 45,35 C45,27.832 50.832,22 58,22 Z M20,25 C14.486,25 10,29.486 10,35 C10,40.514 14.486,45 20,45 C25.514,45 30,40.514 30,35 C30,29.486 25.514,25 20,25 Z M58,25 C52.486,25 48,29.486 48,35 C48,40.514 52.486,45 58,45 C63.514,45 68,40.514 68,35 C68,29.486 63.514,25 58,25 Z M20,26 C24.962,26 29,30.037 29,35 C29,39.963 24.962,44 20,44 C15.038,44 11,39.963 11,35 C11,30.037 15.038,26 20,26 Z M39,26 C41.648,26 43.80175,27.660094 43.96875,29.746094 C43.89375,29.945094 43.815047,30.142703 43.748047,30.345703 C42.650047,28.921703 40.933,28 39,28 C37.067,28 35.349953,28.921703 34.251953,30.345703 C34.185953,30.142703 34.10625,29.945094 34.03125,29.746094 C34.19825,27.660094 36.352,26 39,26 Z M58,26 C62.962,26 67,30.037 67,35 C67,39.963 62.962,44 58,44 C53.038,44 49,39.963 49,35 C49,30.037 53.038,26 58,26 Z M4.5,31 L5.558594,31 C5.204594,32.276 5,33.613 5,35 C5,35.338 5.028781,35.668 5.050781,36 L4.5,36 C3.122,36 2,34.879 2,33.5 C2,32.121 3.122,31 4.5,31 Z M72.441406,31 L73.5,31 C74.878,31 76,32.121 76,33.5 C76,34.879 74.878,36 73.5,36 L72.949219,36 C72.971219,35.668 73,35.338 73,35 C73,33.613 72.795406,32.276 72.441406,31 Z" id="Shape"></path>
        </g>
    </g>
</svg>