<?xml version="1.0" encoding="UTF-8"?>
<svg width="48px" height="48px" viewBox="0 0 48 48" version="1.1" xmlns="http://www.w3.org/2000/svg" xmlns:xlink="http://www.w3.org/1999/xlink">
    <title>4. Icons/left</title>
    <g id="4.-Icons/left" stroke="none" stroke-width="1" fill="none" fill-rule="evenodd">
        <path d="M22.478516,4.99985213 C22.0881758,5.00570756 21.7154349,5.16335166 21.439453,5.4394531 L7.4394531,19.439453 C7.01070533,19.8684992 6.88251276,20.5135159 7.11461775,21.073902 C7.34672273,21.6342881 7.89344808,21.9997621 8.5,22 L16.285156,22 C16.581833,24.657212 17.344799,29.02641 20.193359,33.425781 C23.427063,38.419976 29.370731,42.859821 39.185547,42.962891 C39.193047,42.964391 39.197598,42.969203 39.205078,42.970703 L39.205078,42.966797 C39.313006,42.967865 39.391128,43 39.5,43 C40.270505,42.9991816 40.9150989,42.4147887 40.9912181,41.6480525 C41.0673373,40.8813162 40.5502263,40.1815929 39.794922,40.029297 C33.858682,38.841957 31.228006,35.140825 29.878906,31.039062 C28.740243,27.577106 28.73987,24.187593 28.855469,22 L36.5,22 C37.1065519,21.9997622 37.6532773,21.6342881 37.8853823,21.073902 C38.1174873,20.5135159 37.9892948,19.8684992 37.560547,19.439453 L23.560547,5.4394531 C23.2740365,5.1528254 22.883746,4.99431387 22.478516,4.99985213 Z M22.5,8.6210938 L32.878906,19 L27.384766,19 C26.6105583,18.9996848 25.9632771,19.5885836 25.890625,20.359375 C25.695502,22.443329 25.461646,27.210325 27.029297,31.976562 C27.761681,34.20328 28.994302,36.414574 30.755859,38.3125 C27.042389,36.793413 24.432708,34.454057 22.710938,31.794922 C19.878805,27.420924 19.190991,22.393271 19.042969,20.388672 C18.9846125,19.6055449 18.3321734,18.999952 17.546875,19 L12.121094,19 L22.5,8.6210938 Z" id="icon" fill="#151515" transform="translate(23.999517, 23.999856) scale(-1, 1) rotate(-270.000000) translate(-23.999517, -23.999856) "></path>
    </g>
</svg>