<?xml version="1.0" encoding="UTF-8"?>
<svg width="24px" height="24px" viewBox="0 0 24 24" version="1.1" xmlns="http://www.w3.org/2000/svg" xmlns:xlink="http://www.w3.org/1999/xlink">
    <title>4. Icons/2. Social/linkedin</title>
    <g id="4.-Icons/2.-Social/linkedin" stroke="none" stroke-width="1" fill="none" fill-rule="evenodd">
        <path d="M18,2 C20.209139,2 22,3.790861 22,6 L22,18 C22,20.209139 20.209139,22 18,22 L6,22 C3.790861,22 2,20.209139 2,18 L2,6 C2,3.790861 3.790861,2 6,2 L18,2 Z M8.66666667,9.77777778 L5.86333333,9.77777778 L5.86333333,17.5555556 L8.66666667,17.5555556 L8.66666667,9.77777778 Z M13.7833333,9.77777778 L10.98,9.77777778 L10.98,17.5555556 L13.7833333,17.5555556 L13.7833333,17.5555556 L13.7833333,13.3044444 C13.7833333,12.0388889 14.6877778,11.8577778 14.9588889,11.8577778 C15.23,11.8577778 15.9533333,12.1288889 15.9533333,13.3044444 L15.9533333,13.3044444 L15.9533333,17.5555556 L18.6666667,17.5555556 L18.6666667,13.3044444 C18.6666667,10.8633333 17.5811111,9.77777778 16.2244444,9.77777778 C14.8677778,9.77777778 14.1444444,10.23 13.7833333,10.8633333 L13.7833333,10.8633333 L13.7833333,9.77777778 Z M7.31,5.68555556 C6.35777778,5.68555556 5.78666667,6.25666667 5.78666667,7.01888889 C5.78666667,7.78111111 6.35888889,8.35222222 7.21555556,8.35222222 C8.16777778,8.35222222 8.73888889,7.78111111 8.73888889,7.01888889 C8.73888889,6.25666667 8.16666667,5.68555556 7.31,5.68555556 Z" id="icon" fill="#151515"></path>
    </g>
</svg>