<?xml version="1.0" encoding="UTF-8"?>
<svg width="84px" height="84px" viewBox="0 0 84 84" version="1.1" xmlns="http://www.w3.org/2000/svg" xmlns:xlink="http://www.w3.org/1999/xlink">
    <title>4. Icons/2. Decorative/lock</title>
    <g id="4.-Icons/2.-Decorative/lock" stroke="none" stroke-width="1" fill="none" fill-rule="evenodd">
        <g id="icons8-lock" transform="translate(15.000000, 2.000000)" fill="#000000" fill-rule="nonzero">
            <path d="M27.5,0 C16.18961,0 7,9.18961 7,20.5 L7,34.185547 C2.650043,39.050584 0,45.467795 0,52.5 C0,67.675985 12.324004,80 27.5,80 C42.675996,80 55,67.675985 55,52.5 C55,45.467795 52.349957,39.050584 48,34.185547 L48,20.5 C48,9.18961 38.81039,0 27.5,0 Z M27.5,2 C37.72961,2 46,10.27039 46,20.5 L46,32.162109 C44.765229,31.038149 43.424122,30.029213 42,29.142578 L42,20.5 C42,12.503585 35.496415,6 27.5,6 C19.503585,6 13,12.503585 13,20.5 L13,29.142578 C11.575878,30.029213 10.234771,31.038149 9,32.162109 L9,20.5 C9,10.27039 17.27039,2 27.5,2 Z M27.5,8 C34.415585,8 40,13.584415 40,20.5 L40,28.011719 C36.247845,26.090684 32.001022,25 27.5,25 C22.998978,25 18.752155,26.090684 15,28.011719 L15,20.5 C15,13.584415 20.584415,8 27.5,8 Z M27,27.011719 L27,34.025391 C25.134121,34.075461 23.337554,34.396934 21.648438,34.960938 L19.248047,28.369141 C21.686032,27.536957 24.290926,27.063912 27,27.011719 Z M28,27.011719 C32.433722,27.097138 36.586884,28.311252 40.1875,30.378906 L40.490234,30.558594 C41.545326,31.184464 42.550254,31.886168 43.5,32.652344 L39.972656,36.857422 C39.8506507,36.9933183 39.8124345,37.1849188 39.8729668,37.3572236 C39.9334991,37.5295285 40.083151,37.6551291 40.263343,37.6848607 C40.443535,37.7145923 40.6256039,37.6437254 40.738281,37.5 L44.257812,33.306641 C44.957777,33.918012 45.634301,34.554512 46.263672,35.238281 L46.587891,35.589844 C49.541636,38.922239 51.634264,43.033018 52.521484,47.580078 L45.626953,48.794922 C44.369866,42.62049 40.028709,37.575074 34.289062,35.304688 L36.181641,30.111328 C36.2418984,29.9520156 36.2169197,29.7729874 36.1153567,29.6362528 C36.0137937,29.4995182 35.8496155,29.4238839 35.679688,29.435547 C35.4794625,29.4486235 35.3064437,29.5801174 35.240234,29.769531 L33.351562,34.960938 C31.662446,34.396934 29.865879,34.075461 28,34.025391 L28,27.011719 Z M18.308594,28.710938 L20.710938,35.304688 C19.003129,35.980232 17.420994,36.89807 16.005859,38.023438 L11.5,32.652344 C12.449749,31.886276 13.45458,31.184519 14.509766,30.558594 L14.8125,30.378906 C15.927926,29.738373 17.094998,29.179458 18.308594,28.710938 Z M10.742188,33.306641 L15.244141,38.671875 C13.885314,39.877276 12.708917,41.275862 11.751953,42.830078 L5.664062,39.316406 C6.466452,37.989068 7.38886,36.744267 8.412109,35.589844 L8.736328,35.238281 C9.365624,34.554233 10.042241,33.917976 10.742188,33.306641 Z M27.5,35 C37.170912,35 45,42.829094 45,52.5 C45,62.170906 37.170912,70 27.5,70 C17.829088,70 10,62.170906 10,52.5 C10,42.829094 17.829088,35 27.5,35 Z M48.259766,39.994141 C48.1810383,39.9996791 48.1047394,40.0237732 48.037109,40.064453 L44.558594,42.074219 C44.3963086,42.1596086 44.2937807,42.3269772 44.2913896,42.5103413 C44.289081,42.6937055 44.3872862,42.8636465 44.5473301,42.9531668 C44.707374,43.0426871 44.9035793,43.0374242 45.058594,42.939453 L48.537109,40.931641 C48.7342532,40.8227128 48.8342423,40.5954274 48.7813335,40.376494 C48.7284247,40.1575606 48.5356777,40.0010196 48.310547,39.994141 C48.2936309,39.993281 48.2766821,39.993281 48.259766,39.994141 Z M5.166016,40.183594 L11.232422,43.685547 C10.37494,45.263828 9.742125,46.98212 9.373047,48.794922 L2.478516,47.580078 C2.992409,44.946345 3.909967,42.45867 5.166016,40.183594 Z M27.5,46 C25.572833,46 24,47.572833 24,49.5 C24,50.403333 24.387257,51.194279 24.949219,51.8125 L24.005859,58.429688 C23.9855249,58.5729668 24.0282595,58.7180285 24.1230232,58.8273999 C24.217787,58.9367714 24.3552857,58.9997256 24.5,59 L30.5,59 C30.6447143,58.9997256 30.782213,58.9367714 30.8769768,58.8273999 C30.9717405,58.7180285 31.0144751,58.5729668 30.994141,58.429688 L30.050781,51.8125 C30.612743,51.194279 31,50.403333 31,49.5 C31,47.572833 29.427167,46 27.5,46 Z M27.5,47 C28.886833,47 30,48.113167 30,49.5 C30,50.227505 29.687805,50.870319 29.189453,51.330078 C29.0680617,51.4418155 29.0095997,51.6062398 29.033203,51.769531 L29.923828,58 L25.076172,58 L25.966797,51.769531 C25.9904003,51.6062398 25.9319383,51.4418155 25.810547,51.330078 C25.312195,50.870319 25,50.227505 25,49.5 C25,48.113167 26.113167,47 27.5,47 Z M2.302734,48.564453 L9.222656,49.785156 C9.091426,50.67365 9,51.57524 9,52.5 C9,53.42476 9.091426,54.32635 9.222656,55.214844 L2.302734,56.435547 C2.104473,55.152934 2,53.838605 2,52.5 C2,51.161395 2.104473,49.847066 2.302734,48.564453 Z M52.697266,48.564453 C52.895527,49.847066 53,51.161395 53,52.5 C53,53.838605 52.895527,55.152934 52.697266,56.435547 L45.777344,55.214844 C45.908574,54.32635 46,53.42476 46,52.5 C46,51.57524 45.908574,50.67365 45.777344,49.785156 L52.697266,48.564453 Z M9.373047,56.205078 C10.186987,60.202903 12.303396,63.71942 15.244141,66.328125 L10.728516,71.708984 C8.746462,69.977393 7.032906,67.947979 5.664062,65.683594 L10.427734,62.935547 C10.6251381,62.8264184 10.7250463,62.5986414 10.6716301,62.3794973 C10.6182139,62.1603532 10.4246981,62.0040981 10.199219,61.998047 C10.1038698,61.995109 10.0096698,62.0195059 9.927734,62.068359 L5.166016,64.816406 C3.909967,62.54133 2.992409,60.053655 2.478516,57.419922 L9.373047,56.205078 Z M45.626953,56.205078 L52.521484,57.419922 C51.417284,63.079018 48.445505,68.062414 44.271484,71.708984 L39.755859,66.328125 C41.114686,65.122724 42.291083,63.724138 43.248047,62.169922 L48.037109,64.935547 C48.1920172,65.0248634 48.3828081,65.0247527 48.5376125,64.9352564 C48.6924169,64.8457601 48.7877163,64.680475 48.7876125,64.5016624 C48.7875086,64.3228497 48.6920172,64.1576754 48.537109,64.068359 L43.767578,61.314453 C44.62506,59.736172 45.257875,58.01788 45.626953,56.205078 Z M16.005859,66.976562 C17.420994,68.10193 19.003129,69.019768 20.710938,69.695312 L18.818359,74.888672 C18.7573028,75.0568382 18.7906002,75.2448032 18.9057083,75.3817625 C19.0208164,75.5187217 19.2002476,75.5838679 19.3764118,75.552661 C19.5525761,75.5214541 19.6987099,75.3986352 19.759766,75.230469 L21.648438,70.039062 C23.489372,70.653758 25.453328,71 27.5,71 C29.546672,71 31.510628,70.653758 33.351562,70.039062 L35.751953,76.630859 C33.163667,77.514347 30.389471,78 27.5,78 C21.433489,78 15.869159,75.884054 11.494141,72.353516 L16.005859,66.976562 Z M38.994141,66.976562 L43.505859,72.353516 C41.469066,73.997161 39.175293,75.330135 36.691406,76.289062 L34.289062,69.695312 C35.996871,69.019768 37.579006,68.10193 38.994141,66.976562 Z M27.492188,71.992188 C27.3595788,71.994257 27.2332232,72.0489215 27.1409194,72.1441553 C27.0486156,72.2393892 26.9979252,72.3673909 27,72.5 L27,76.46875 C26.9974499,76.649068 27.0921876,76.8167907 27.2479364,76.9076939 C27.4036852,76.998597 27.5963148,76.998597 27.7520636,76.9076939 C27.9078124,76.8167907 28.0025501,76.649068 28,76.46875 L28,72.5 C28.0021173,72.3646819 27.949296,72.2342841 27.8535999,72.1385881 C27.7579039,72.042892 27.6275061,71.9900707 27.492188,71.992188 Z" id="Shape"></path>
        </g>
    </g>
</svg>