<?xml version="1.0" encoding="UTF-8"?>
<svg width="48px" height="48px" viewBox="0 0 48 48" version="1.1" xmlns="http://www.w3.org/2000/svg" xmlns:xlink="http://www.w3.org/1999/xlink">
    <title>4. Icons/marker</title>
    <g id="4.-Icons/marker" stroke="none" stroke-width="1" fill="none" fill-rule="evenodd">
        <g id="icons8-marker" transform="translate(7.000000, 4.000000)" fill="#151515">
            <path d="M17,0 C7.629252,0 0,7.629252 0,17 C0,21.20679 1.5433056,25.064832 4.078125,28.03125 L4.085938,28.039062 L4.091797,28.046875 C4.091797,28.046875 11.323729,36.299027 13.898438,38.755859 C15.622568,40.39966 18.375478,40.39966 20.099609,38.755859 C23.034388,35.956663 29.910156,28.042969 29.910156,28.042969 L29.914062,28.037109 L29.919922,28.03125 C32.456988,25.064801 34,21.20679 34,17 C34,7.629252 26.370748,0 17,0 Z M17,3 C24.749252,3 31,9.250748 31,17 C31,20.47521 29.733544,23.632586 27.638672,26.082031 C27.625032,26.097631 20.590036,34.143501 18.029297,36.585938 C17.435428,37.152136 16.562619,37.152136 15.96875,36.585938 C13.828579,34.543748 6.381099,26.106639 6.359375,26.082031 L6.357422,26.080078 C4.265326,23.630829 3,20.474248 3,17 C3,9.250748 9.250748,3 17,3 Z M17,11 C15.125,11 13.528815,11.757133 12.503906,12.910156 C11.478997,14.063179 11,15.541667 11,17 C11,18.458333 11.478997,19.936821 12.503906,21.089844 C13.528815,22.242867 15.125,23 17,23 C18.875,23 20.471185,22.242867 21.496094,21.089844 C22.521003,19.936821 23,18.458333 23,17 C23,15.541667 22.521003,14.063179 21.496094,12.910156 C20.471185,11.757133 18.875,11 17,11 Z M17,14 C18.124999,14 18.778816,14.367867 19.253906,14.902344 C19.728997,15.436821 20,16.208333 20,17 C20,17.791667 19.728997,18.563179 19.253906,19.097656 C18.778816,19.632133 18.124999,20 17,20 C15.875001,20 15.221184,19.632133 14.746094,19.097656 C14.271003,18.563179 14,17.791667 14,17 C14,16.208333 14.271003,15.436821 14.746094,14.902344 C15.221184,14.367867 15.875001,14 17,14 Z" id="Shape"></path>
        </g>
    </g>
</svg>