<?xml version="1.0" encoding="UTF-8"?>
<svg width="48px" height="48px" viewBox="0 0 48 48" version="1.1" xmlns="http://www.w3.org/2000/svg" xmlns:xlink="http://www.w3.org/1999/xlink">
    <title>4. Icons/phone</title>
    <g id="4.-Icons/phone" stroke="none" stroke-width="1" fill="none" fill-rule="evenodd">
        <g id="icons8-phone" transform="translate(9.000000, 4.000000)" fill="#151515">
            <path d="M10.041016,0.0136719 C9.382757,-0.0342161 8.708271,0.0330649 8.046875,0.2285156 L5.679688,0.9296875 C3.157236,1.6756944 1.186338,3.677075 0.5195312,6.203125 C-0.9610452,11.820868 0.7326768,18.47029 5.140625,25.955078 C9.542377,33.429539 14.558019,38.179937 20.222656,39.730469 C22.773641,40.428685 25.524755,39.761709 27.457031,37.966797 L29.257812,36.296875 C31.272819,34.425993 31.573265,31.309882 29.945312,29.095703 L27.34375,25.5625 C25.949212,23.668344 23.49096,22.861916 21.230469,23.541016 L17.160156,24.759766 C16.989301,24.809656 16.580424,24.576963 16.224609,24.269531 L16.222656,24.267578 C15.588917,23.716517 14.710863,22.602712 13.771484,21.009766 L13.771484,21.007812 C12.764214,19.297093 12.334594,18.17828 12.162109,17.517578 C11.989545,16.856572 12.031423,16.776164 12.056641,16.552734 C12.069751,16.441248 12.122721,16.337948 12.212891,16.255859 L12.214844,16.253906 L15.25,13.478516 C16.988893,11.888867 17.513843,9.348513 16.533203,7.210938 L14.703125,3.21875 L14.703125,3.2167969 C13.841519,1.3386971 12.015266,0.1572962 10.041016,0.0136719 Z M9.824219,3.0058594 C10.742414,3.0744633 11.587933,3.6252174 11.974609,4.46875 L13.806641,8.460938 C14.25,9.427361 14.027671,10.533274 13.226562,11.265625 L10.191406,14.039062 C9.569197,14.606386 9.171295,15.379878 9.076172,16.214844 L9.076172,16.216797 C9.051392,16.436367 8.992832,17.252897 9.259766,18.275391 C9.526701,19.297884 10.077817,20.650307 11.185547,22.53125 L11.1875,22.53125 C12.221084,24.284258 13.197939,25.616041 14.255859,26.535156 L14.257812,26.535156 C14.601374,26.832583 16.041282,28.212607 18,27.640625 L18.005859,27.638672 L22.09375,26.414062 C23.155259,26.095163 24.290273,26.475952 24.927734,27.341797 L27.529297,30.875 C28.266003,31.878668 28.13729,33.243002 27.216797,34.097656 L25.416016,35.769531 C24.264351,36.839787 22.554167,37.257578 21.013672,36.835938 C16.434309,35.582469 11.90281,31.525133 7.726562,24.433594 C3.544511,17.332382 2.236498,11.459007 3.419922,6.96875 C3.811115,5.4868 5.009701,4.2566337 6.53125,3.8066406 L8.896484,3.1054688 C9.204589,3.0144199 9.518154,2.9829914 9.824219,3.0058594 Z" id="Shape"></path>
        </g>
    </g>
</svg>