<?xml version="1.0" encoding="UTF-8"?>
<svg width="48px" height="48px" viewBox="0 0 48 48" version="1.1" xmlns="http://www.w3.org/2000/svg" xmlns:xlink="http://www.w3.org/1999/xlink">
    <title>4. Icons/quote</title>
    <g id="4.-Icons/quote" stroke="none" stroke-width="1" fill="none" fill-rule="evenodd">
        <g id="icons8-quote" transform="translate(4.000000, 4.000000)" fill="#151515">
            <path d="M20,-0.0019531 C8.972292,-0.0019531 0,8.970339 0,19.9980469 C0,23.273363 0.8627078,26.334853 2.2617188,29.064453 L0.09375,36.826172 C-0.4112027,38.629575 1.3719261,40.41261 3.1757812,39.908203 L10.943359,37.740234 C13.670736,39.136312 16.727751,39.9980469 20,39.9980469 C31.027708,39.9980469 40,31.025755 40,19.9980469 C40,8.970339 31.027708,-0.0019531 20,-0.0019531 Z M20,2.9980469 C29.406292,2.9980469 37,10.591755 37,19.9980469 C37,29.404339 29.406292,36.9980469 20,36.9980469 C16.998416,36.9980469 14.190601,36.217527 11.742188,34.853516 C11.3970646,34.6611685 10.9899927,34.6127408 10.609375,34.71875 L3.2226562,36.779297 L5.2851562,29.396484 C5.39170357,29.0152628 5.34326318,28.6073809 5.1503906,28.261719 C3.7836522,25.811523 3,23.002565 3,19.9980469 C3,10.591755 10.593708,2.9980469 20,2.9980469 Z M14,13 C11.790861,13 10,14.790861 10,17 C10,19.209139 11.790861,21 14,21 C14.1173885,20.9993023 14.2346894,20.9934373 14.351562,20.982422 C13.875124,22.515258 13.060297,24.205266 11.599609,25.300781 C11.154708,25.6165162 10.9162849,26.1488905 10.9769766,26.6910548 C11.0376684,27.2332191 11.3879065,27.6996966 11.8916091,27.9092419 C12.3953118,28.1187871 12.9730661,28.0383636 13.400391,27.699219 C18.168391,24.123219 18,17.5 18,17.5 C18.0004336,17.4340586 17.9965187,17.3681603 17.988281,17.302734 C18.072549,16.1925015 17.6902516,15.0973858 16.933345,14.2808015 C16.1764385,13.4642173 15.1134259,13 14,13 Z M26,13 C23.790861,13 22,14.790861 22,17 C22,19.209139 23.790861,21 26,21 C26.1173885,20.9993023 26.2346894,20.9934373 26.351562,20.982422 C25.875124,22.515258 25.060297,24.205266 23.599609,25.300781 C23.154708,25.6165162 22.9162849,26.1488905 22.9769766,26.6910548 C23.0376684,27.2332191 23.3879065,27.6996966 23.8916091,27.9092419 C24.3953118,28.1187871 24.9730661,28.0383636 25.400391,27.699219 C30.168391,24.123219 30,17.5 30,17.5 C30.0004336,17.4340586 29.9965187,17.3681603 29.988281,17.302734 C30.072549,16.1925015 29.6902516,15.0973858 28.933345,14.2808015 C28.1764385,13.4642173 27.1134259,13 26,13 Z" id="Shape"></path>
        </g>
    </g>
</svg>