<?xml version="1.0" encoding="UTF-8"?>
<svg width="48px" height="48px" viewBox="0 0 48 48" version="1.1" xmlns="http://www.w3.org/2000/svg" xmlns:xlink="http://www.w3.org/1999/xlink">
    <title>4. Icons/star</title>
    <g id="4.-Icons/star" stroke="none" stroke-width="1" fill="none" fill-rule="evenodd">
        <g id="icons8-star" transform="translate(4.000000, 5.000000)" fill="#EF7C54">
            <path d="M20.009766,-2.94004926e-05 C19.4378463,-0.00357076988 18.9136562,0.318366654 18.658203,0.8300781 L13.505859,11.134766 L1.2714844,13.017578 C0.713068783,13.1038654 0.250507608,13.4966071 0.0747978359,14.0336356 C-0.100911936,14.5706641 0.040040066,15.1608687 0.4394531,15.560547 L8.902344,24.023438 L7.017578,36.271484 C6.9315963,36.8302681 7.16707083,37.3899355 7.62667712,37.7191688 C8.08628341,38.0484021 8.69195443,38.091279 9.193359,37.830078 L20,32.191406 L30.806641,37.830078 C31.3080456,38.091279 31.9137166,38.0484021 32.3733229,37.7191688 C32.8329292,37.3899355 33.0684037,36.8302681 32.982422,36.271484 L31.097656,24.023438 L39.560547,15.560547 C39.95996,15.1608687 40.1009121,14.5706642 39.9252024,14.0336357 C39.7494927,13.4966073 39.2869316,13.1038655 38.728516,13.017578 L26.494141,11.134766 L21.341797,0.8300781 C21.0894881,0.324660251 20.5746486,0.00382909432 20.009766,-2.94004926e-05 Z" id="Path"></path>
        </g>
    </g>
</svg>